PathFileType	4	(X/Y/Z)	D:\MotionData\Pi-Spi Study\20230118_AMCsubject1\Trimmed_right_abd_18001_rotated.trc
DataRate	CameraRate	NumFrames	NumMarkers	Units	OrigDataRate	OrigDataStartFrame	OrigNumFrames
200.00	200.00	       6	35	mm	200.00	176	       200
Frame#	Time	C7			Sternum			r_AMC1			r_AMC2			r_AMC3			l_AMC1			l_AMC2			l_AMC3			PX			T8			r_humerous			r_elbow_medial			r_elbow_lateral			r_forearm			r_wrist_radius			r_wrist_ulna			r_MCP_1			r_MCP_3			l_humerous			l_elbow_medial			l_elbow_lateral			l_forearm			l_wrist_radius			l_wrist_ulna			l_MCP_1			l_MCP_3			r_ASIS			r_PSIS			l_ASIS			l_PSIS			r_IC			l_IC			TS			AI			AA			
		X1	Y1	Z1	X2	Y2	Z2	X3	Y3	Z3	X4	Y4	Z4	X5	Y5	Z5	X6	Y6	Z6	X7	Y7	Z7	X8	Y8	Z8	X9	Y9	Z9	X10	Y10	Z10	X11	Y11	Z11	X12	Y12	Z12	X13	Y13	Z13	X14	Y14	Z14	X15	Y15	Z15	X16	Y16	Z16	X17	Y17	Z17	X18	Y18	Z18	X19	Y19	Z19	X20	Y20	Z20	X21	Y21	Z21	X22	Y22	Z22	X23	Y23	Z23	X24	Y24	Z24	X25	Y25	Z25	X26	Y26	Z26	X27	Y27	Z27	X28	Y28	Z28	X29	Y29	Z29	X30	Y30	Z30	X31	Y31	Z31	X32	Y32	Z32	X33	Y33	Z33	X34	Y34	Z34	X35	Y35	Z35	

176	0.875	193.5349	1374.2377	-245.9724	330.2379	1322.7151	-223.6169	157.5517	1342.4639	-115.3485	186.5533	1378.3419	-97.4266	189.3072	1396.7898	-137.5955	221.8961	1323.048	-398.4581	262.3797	1316.3611	-429.3626	283.7373	1354.1079	-400.9396	392.122	1131.7216	-206.9191	159.6299	1190.8745	-244.4892	266.1397	1475.1544	-78.9586	353.5421	1556.2523	13.6563	296.6501	1579.2969	13.6582	335.7571	1741.3403	27.8496	376.9672	1807.824	3.616	365.2882	1801.0586	54.339	396.6501	1889.3661	6.765	389.3078	1883.4282	53.8761	345.7611	1126.8571	-425.6561	297.6135	993.4534	-380.5959	289.1547	987.3409	-432.7849	323.6185	841.6331	-473.6837	337.8931	764.6501	-457.8043	359.5016	775.0057	-493.3788	352.2939	689.4155	-468.5378	366.9286	698.4914	-510.4528	353.1825	909.102	-76.2464	170.7306	930.0478	-169.3019	369.6472	892.6602	-334.7912	177.8528	922.8901	-272.0676	271.6196	972.4383	-53.5649	284.0455	941.0216	-378.4176	102.1348	1295.0769	-158.5623	120.8127	1221.0819	-90.4508	137.5938	1389.3826	-54.3833
177	0.88	193.551	1374.2435	-245.9535	330.2549	1322.7329	-223.6035	157.5786	1342.4595	-115.3239	186.6119	1378.3462	-97.3769	189.3324	1396.7971	-137.5873	221.9258	1323.0089	-398.4541	262.3999	1316.3799	-429.3669	283.7714	1354.0967	-400.9271	392.1717	1131.7252	-206.9048	159.6341	1190.887	-244.4873	266.1764	1475.1394	-78.9276	353.5855	1556.2493	13.6954	296.7231	1579.2933	13.6962	335.8278	1741.321	27.8802	377.0569	1807.8121	3.6493	365.387	1801.0403	54.3429	396.7285	1889.3763	6.6581	389.39	1883.4028	53.8983	345.7945	1126.8616	-425.6351	297.6454	993.4605	-380.5401	289.1336	987.3512	-432.7676	323.6215	841.6202	-473.6508	337.9129	764.6604	-457.7585	359.4935	775.0031	-493.3279	352.3037	689.4126	-468.4882	366.9548	698.4644	-510.3481	353.156	909.1184	-76.2262	170.7443	930.0486	-169.2904	369.6639	892.6407	-334.7617	177.8275	922.9488	-272.0086	271.6541	972.4244	-53.5782	284.0699	940.9578	-378.4303	102.1683	1295.0676	-158.5393	120.8212	1221.0829	-90.4464	137.6791	1389.3569	-54.3388
178	0.885	193.5825	1374.2451	-245.9253	330.2975	1322.7281	-223.5839	157.6054	1342.4713	-115.3267	186.6571	1378.3556	-97.3687	189.3886	1396.7974	-137.5831	221.996	1322.9778	-398.495	262.4284	1316.3743	-429.3499	283.7996	1354.1085	-400.9219	392.1601	1131.7511	-206.9046	159.6627	1190.887	-244.4753	266.2332	1475.1376	-78.9054	353.7379	1556.3488	13.655	296.7756	1579.2779	13.7181	335.9121	1741.3232	27.9231	377.1391	1807.7994	3.6796	365.4565	1801.0341	54.3863	396.8088	1889.3551	6.6749	389.4695	1883.3885	53.9487	345.8231	1126.8806	-425.5757	297.6666	993.4501	-380.5361	289.2124	987.3325	-432.6707	323.6482	841.6226	-473.6202	337.3388	764.5714	-457.4501	359.48	774.9806	-493.2906	352.2636	689.3879	-468.4524	366.9844	698.4294	-510.2593	353.1619	909.0884	-76.2201	170.7532	930.048	-169.2842	369.6874	892.6544	-334.7508	177.8707	922.9167	-272.0446	271.6745	972.4129	-53.5639	284.0886	941.0018	-378.4119	102.204	1295.0708	-158.5234	120.8457	1221.056	-90.4185	137.7103	1389.3165	-54.3107
179	0.89	193.5995	1374.2484	-245.9213	330.3215	1322.72	-223.5716	157.6609	1342.4624	-115.3178	186.6801	1378.3685	-97.3525	189.4211	1396.8005	-137.5519	222.0599	1322.9462	-398.5028	262.4585	1316.3949	-429.3225	283.8466	1354.0999	-400.9131	392.1709	1131.7324	-206.8853	159.6834	1190.8879	-244.4723	266.2708	1475.1367	-78.8845	353.7907	1556.3644	13.6768	296.8356	1579.2666	13.7504	335.9853	1741.3029	27.9447	377.2303	1807.7738	3.7196	365.5511	1800.9852	54.3934	396.9148	1889.3086	6.851	389.5512	1883.382	53.9522	345.8797	1126.8529	-425.5378	297.7027	993.4651	-380.49	289.2463	987.3487	-432.677	323.6562	841.6342	-473.5714	337.3416	764.5436	-457.3912	359.4894	774.9687	-493.2326	352.2893	689.3726	-468.3858	366.9942	698.4312	-510.2132	353.1705	909.1161	-76.198	170.7554	930.0432	-169.2605	369.7129	892.6549	-334.7385	177.8738	922.9521	-271.9928	271.716	972.4193	-53.5566	284.1319	940.9452	-378.3519	102.2155	1295.0962	-158.4963	120.9177	1221.0674	-90.4468	137.7765	1389.3096	-54.2633
180	0.895	193.6281	1374.2324	-245.9029	330.3514	1322.7285	-223.5667	157.6666	1342.4695	-115.3003	186.7304	1378.3554	-97.3371	189.4937	1396.7943	-137.525	222.0871	1322.9325	-398.5041	262.4672	1316.3745	-429.3138	283.8489	1354.1143	-400.8982	392.2161	1131.712	-206.8629	159.7325	1190.8853	-244.4631	266.3533	1475.1512	-78.8737	353.8756	1556.3407	13.7166	296.9284	1579.2383	13.7881	336.0655	1741.2948	27.9936	377.3162	1807.752	3.7545	365.6389	1800.9869	54.4181	397.0029	1889.3159	6.7262	389.6395	1883.3561	53.9704	345.9247	1126.8314	-425.5104	297.6984	993.4641	-380.495	289.2661	987.3243	-432.6237	323.6718	841.6305	-473.5289	338.0001	764.5809	-457.562	359.4698	774.9423	-493.2005	352.2614	689.361	-468.3649	367.003	698.4216	-510.1602	353.1826	909.1038	-76.1859	170.7832	930.0583	-169.2505	369.6983	892.636	-334.7072	177.8809	922.9655	-271.9657	271.6953	972.3909	-53.5192	284.1081	940.9357	-378.3213	102.252	1295.0975	-158.4986	120.9226	1221.0464	-90.4515	138.0356	1389.0343	-54.4566
181	0.9	193.6541	1374.25	-245.9016	330.3884	1322.7213	-223.571	157.6918	1342.4709	-115.278	186.7947	1378.3644	-97.3432	189.5422	1396.808	-137.516	222.0797	1322.9597	-398.4694	262.4892	1316.3761	-429.2933	283.881	1354.119	-400.886	392.2398	1131.7161	-206.8655	159.7426	1190.8953	-244.4335	266.4037	1475.1335	-78.847	353.9306	1556.3181	13.7501	296.9516	1579.2233	13.8419	336.1345	1741.2844	28.0171	377.4108	1807.7577	3.7764	365.7304	1800.9752	54.4198	397.0816	1889.2615	6.8994	389.748	1883.3293	53.997	345.9783	1126.8412	-425.4972	297.7236	993.477	-380.4738	289.2736	987.3279	-432.6194	323.6855	841.6293	-473.5021	337.9781	764.5899	-457.5428	359.4705	774.9393	-493.1528	352.266	689.3485	-468.2974	367.0152	698.4294	-510.1042	353.1919	909.1019	-76.1762	170.7912	930.0565	-169.2463	369.7042	892.6612	-334.7149	177.8609	922.9775	-271.9644	271.7271	972.373	-53.518	284.2139	940.8684	-378.3361	102.264	1295.1122	-158.4541	120.9649	1221.0532	-90.4315	137.8658	1389.2645	-54.2137
